<?xml version="1.0" encoding="utf-8"?>
<svg version="1.1" xmlns:xlink="http://www.w3.org/1999/xlink" width="10px" height="10px" xmlns="http://www.w3.org/2000/svg">
  <g transform="matrix(1 0 0 1 -72 -746 )">
    <path d="M 77 746  C 79.8 746  82 748.2  82 751  C 82 753.8  79.8 756  77 756  C 74.2 756  72 753.8  72 751  C 72 748.2  74.2 746  77 746  Z " fill-rule="nonzero" fill="#8ef280" stroke="none" />
    <path d="M 77 746.5  C 79.52 746.5  81.5 748.48  81.5 751  C 81.5 753.52  79.52 755.5  77 755.5  C 74.48 755.5  72.5 753.52  72.5 751  C 72.5 748.48  74.48 746.5  77 746.5  Z " stroke-width="1" stroke="#555555" fill="none" />
  </g>
</svg>