<?xml version="1.0" encoding="utf-8"?>
<!-- Generator: Adobe Illustrator 23.0.0, SVG Export Plug-In . SVG Version: 6.00 Build 0)  -->
<svg version="1.1" id="图标" xmlns="http://www.w3.org/2000/svg" xmlns:xlink="http://www.w3.org/1999/xlink" x="0px" y="0px"
	 viewBox="0 0 1024 1024" style="enable-background:new 0 0 1024 1024;" xml:space="preserve">
<style type="text/css">
	.st0{fill-rule:evenodd;clip-rule:evenodd;}
</style>
<path id="altimetry" class="st0" d="M872,960H614.6c-36.2,0.8-66.3-27.8-67.3-64V128.8c1.1-36.3,31.3-64.8,67.5-64H872
	c36.3-0.9,66.5,27.7,67.5,64V896C938.5,932.3,908.3,960.9,872,960z M876.8,128.8c0.1-2.7-2.1-4.9-4.8-5l0,0H614.8
	c-2.7,0.1-4.8,2.3-4.8,5V207c0.6-0.2,1.2-0.4,1.9-0.4h67.9c17.4,0,31.6,14.1,31.6,31.6s-14.1,31.6-31.6,31.6h-67.9
	c-0.6,0-1.3-0.2-1.9-0.2v74.6c0.6-0.2,1.2-0.4,1.9-0.4H733c17.4,0,31.6,14.1,31.6,31.6c0,17.4-14.1,31.6-31.6,31.6H611.9
	c-0.6,0-1-0.2-1.9-0.2V481c0.6,0,1.3-0.2,1.9-0.2h67.9c17.4,0,31.6,14.1,31.6,31.6c0,17.5-14.1,31.6-31.6,31.6h-67.9
	c-0.6,0-1.3-0.2-1.9-0.2v74.6c0.6-0.2,1.2-0.4,1.9-0.4H733c17.4,0,31.6,14.1,31.6,31.6s-14.1,31.6-31.6,31.6H611.9
	c-0.6-0.1-1.3-0.2-1.9-0.4v74.6c0.6,0,1.3-0.2,1.9-0.2h67.9c17.4,0,31.6,14.1,31.6,31.6c0,17.4-14.1,31.6-31.6,31.6h-67.9
	c-0.6,0-1.3-0.2-1.9-0.2V896c-0.1,2.6,2,4.9,4.6,5H872c2.7-0.1,4.8-2.3,4.8-5l0,0V128.8L876.8,128.8z M316.8,960H116.1
	c-17.4,0-31.6-14.1-31.6-31.6s14.1-31.6,31.6-31.6l0,0h200.7c17.4,0,31.6,14.1,31.6,31.6S334.2,960,316.8,960z M147.5,270.7
	c-4,0-7.3-3.2-7.3-7.2c0-1.3,0.4-2.7,1.1-3.8l70.2-121.5c1.9-3.5,6.3-4.8,9.8-2.9c1.2,0.7,2.2,1.7,2.9,2.9l70.4,121.5
	c2.1,3.4,1,7.9-2.4,10c-1.1,0.7-2.5,1.1-3.8,1.1h-40.6v482.5h40.6c4,0,7.3,3.2,7.3,7.2c0,1.3-0.4,2.7-1.1,3.8l-70.4,121.5
	c-1.9,3.5-6.3,4.8-9.8,2.9c-1.2-0.7-2.2-1.7-2.9-2.9l-70.2-121.5c-2.1-3.4-1-7.9,2.4-10c1.1-0.7,2.5-1.1,3.8-1.1H185V270.7H147.5z
	 M316.8,127.2H116.1c-17.4,0-31.6-14.1-31.6-31.6S98.6,64,116.1,64l0,0h200.7c17.4,0,31.6,14.1,31.6,31.6S334.2,127.2,316.8,127.2z"
	/>
</svg>
