<?xml version="1.0" encoding="utf-8"?>
<!-- Generator: Adobe Illustrator 23.0.0, SVG Export Plug-In . SVG Version: 6.00 Build 0)  -->
<svg version="1.1" id="图标" xmlns="http://www.w3.org/2000/svg" xmlns:xlink="http://www.w3.org/1999/xlink" x="0px" y="0px"
	 viewBox="0 0 1024 1024" style="enable-background:new 0 0 1024 1024;" xml:space="preserve">
<g id="archives">
	<path d="M914.4,885.5l-0.1,0.3L809.4,780.1c68.5-104.8,39.1-245.4-65.8-313.9s-245.3-39-313.8,65.8s-39.1,245.4,65.8,313.9
		c37,24.2,80.3,37,124.5,36.9c44.6-0.1,88.2-13.4,125.2-38.2l105,105.6c13.1,13.1,34.4,13.1,47.4,0l16.8-16.9
		C927.5,920,927.5,898.8,914.4,885.5z M742.4,713.2l0.2-0.1c-15.8,33.4-44.4,59-79.3,71c-13.9,5.5-28.8,8.1-43.7,7.6
		c-76.4,1.1-139.1-59.9-140.2-136.3s60.1-139.1,136.5-140.2S755,575.2,756,651.5C756.3,672.9,751.6,694,742.4,713.2z"/>
	<g>
		<path d="M658.5,194.4c-22.5,0-41.8,8.1-57.9,24.2c-16.1,16.1-24.2,35.8-24.2,59c0,22.5,8.1,41.8,24.2,57.9
			c11.3,11.3,24.3,18.6,38.8,22c7,0.5,13.9,1.2,20.7,2.1c22.5-0.4,41.5-8.4,56.9-24.1c15.7-16.1,23.6-35.4,23.6-57.9
			c0-23.2-7.9-42.9-23.6-59S681.8,194.4,658.5,194.4z"/>
		<path d="M321,657.5c-1.2-86.6,34.8-164.9,93.1-219.9c-16.6-14.2-34.6-27.9-54-40.8c-23.6-15.7-50.6-29-80.9-39.9
			c-30.4-10.9-66.5-17-108.5-18.5V182c0-12.7,3.9-23.8,11.8-33.2c7.9-9.4,20.4-14.1,37.7-14.1h536.2c3,0,7.1,0.6,12.4,1.7
			c5.2,1.1,10.5,3,15.7,5.6s9.7,6.2,13.5,10.7c3.7,4.5,5.6,10.1,5.6,16.9v252.1c27.2,21.9,50.5,48.5,68.6,78.6V138.2
			c0-21.7-6-39.5-18-53.4S826.5,64,807,64H183c-29.2,0-50.4,8.4-63.5,25.3s-19.7,38.8-19.7,65.8v620.5c0,17.2,7.1,33.2,21.4,47.8
			c14.2,14.6,31.9,21.9,52.8,21.9h217.3C348.3,794.6,322,729.2,321,657.5z"/>
	</g>
</g>
</svg>
