<?xml version="1.0" encoding="utf-8"?>
<!-- Generator: Adobe Illustrator 23.0.0, SVG Export Plug-In . SVG Version: 6.00 Build 0)  -->
<svg version="1.1" id="图标" xmlns="http://www.w3.org/2000/svg" xmlns:xlink="http://www.w3.org/1999/xlink" x="0px" y="0px"
	 viewBox="0 0 1024 1024" style="enable-background:new 0 0 1024 1024;" xml:space="preserve">
<style type="text/css">
	.st0{fill-rule:evenodd;clip-rule:evenodd;}
</style>
<path id="area" class="st0" d="M135.7,260.1H78.2c-7.7-0.1-14-6.2-14.2-14V78c0.2-7.7,6.4-13.9,14.2-14h168c7.7,0,14,6.3,14,14l0,0
	v57.5H764V78c0-7.7,6.2-14,14-14h168c7.7,0,14,6.3,14,14l0,0v168c0.2,7.5-5.8,13.8-13.3,14c-0.1,0-0.3,0-0.4,0H777.9
	c-7.6,0.1-13.8-5.9-14-13.5c0-0.2,0-0.3,0-0.5l0,0v-57.5H260.1V246c0,7.8-6.2,14.1-14,14.2h-57.3v504h57.3c7.7,0,14,6.3,14,14l0,0
	v57.5h503.8V778c0-7.7,6.2-14,14-14h57.5V259.9h52.9v504.2h57.5c7.6-0.2,14,5.9,14.2,13.5c0,0.1,0,0.2,0,0.3l0,0V946
	c0,7.7-6.2,14-14,14H778c-7.7,0-14-6.3-14-14l0,0v-57.5H260.3V946c0,7.7-6.2,14-14,14h-168c-7.6,0.2-13.9-5.7-14.2-13.3
	c0-0.2,0-0.4,0-0.6l0,0V778c0-7.7,6.2-14,14-14h57.5V260.1H135.7z M218.2,218V106.1H106.3V218H218.2z M917.9,218V106.1H805.8V218
	H917.9z M218.2,917.9V806H106.3v111.9H218.2z M917.9,917.9V806H805.8v111.9H917.9z M297,271.6L752.5,727c5.8,5.8,5.8,15.2,0.1,21
	c0,0,0,0-0.1,0.1l-4.4,4.6c-5.9,5.6-15.2,5.6-21,0L271.5,296.8c-5.8-5.8-5.8-15.2-0.1-21c0,0,0,0,0.1-0.1l4.4-4.2
	C281.7,265.8,291.1,265.7,297,271.6C296.9,271.5,296.9,271.6,297,271.6L297,271.6z M378.4,248.2l397.4,397.5c5.6,5.8,5.6,15,0,20.8
	l-4.4,4.4c-5.8,5.8-15.2,5.8-21,0.1c0,0,0,0-0.1-0.1L353.2,273.7c-5.8-5.8-5.9-15.1-0.2-21.1h0.2l4.2-4.4
	C363.2,242.4,372.6,242.4,378.4,248.2L378.4,248.2L378.4,248.2L378.4,248.2z M482.4,247.4l294.2,294.3c5.6,5.8,5.6,15,0,20.8
	l-4.4,4.4c-5.8,5.8-15.2,5.8-21,0.1c0,0,0,0-0.1-0.1l-294-294.1c-5.8-5.6-5.9-14.9-0.2-20.6c0.1-0.1,0.1-0.1,0.2-0.2l0,0l4.4-4.6
	c5.6-5.8,14.9-5.8,20.6-0.2C482.3,247.3,482.3,247.3,482.4,247.4L482.4,247.4z M751.8,462.9L561.2,272c-5.8-5.8-5.8-15.2-0.1-21
	c0,0,0,0,0.1-0.1l4.4-4.4c5.6-5.8,14.9-5.8,20.6-0.2c0.1,0.1,0.1,0.1,0.2,0.2l190.9,190.9c5.8,5.8,5.8,15.2,0.1,21c0,0,0,0-0.1,0.1
	l-4.4,4.4C767.1,468.7,757.7,468.7,751.8,462.9C751.9,463,751.9,462.9,751.8,462.9L751.8,462.9z M751.4,357.7l-85-85.2
	c-5.8-5.6-5.9-14.9-0.2-20.6c0.1-0.1,0.1-0.1,0.2-0.2l4.4-4.4c5.8-5.8,15.2-5.8,21-0.1c0,0,0,0,0.1,0.1l85,84.8
	c5.6,5.9,5.6,15.2,0,21.1l-4.4,4.6C766.6,363.3,757.3,363.3,751.4,357.7L751.4,357.7z M273.8,353.1L671,750.5
	c5.8,5.6,5.9,14.9,0.2,20.6c-0.1,0.1-0.1,0.1-0.2,0.2l-4.4,4.4c-5.8,5.8-15.2,5.8-21,0.1c0,0,0,0-0.1-0.1L248.4,378.3
	c-5.8-5.6-5.9-14.9-0.2-20.6c0.1-0.1,0.1-0.1,0.2-0.2l4.4-4.4C258.6,347.3,268,347.2,273.8,353.1C273.8,353,273.8,353.1,273.8,353.1
	L273.8,353.1z M273,457.1l294,294.1c5.8,5.8,5.8,15.2,0.1,21c0,0,0,0-0.1,0.1l-4.4,4.4c-5.8,5.8-15.2,5.8-21,0.1c0,0,0,0-0.1-0.1
	L247.4,482.5c-5.6-5.9-5.6-15.2,0-21.1l4.6-4.4C257.7,451.3,267.1,451.2,273,457.1C273,457,273,457.1,273,457.1L273,457.1z
	 M272.2,561.1l191,190.9c5.6,5.9,5.6,15.2,0,21.1l-4.6,4.4c-5.9,5.6-15.2,5.6-21,0l-190.7-191c-5.8-5.8-5.8-15.2-0.1-21
	c0,0,0,0,0.1-0.1l4.2-4.4C256.9,555.3,266.3,555.2,272.2,561.1C272.1,561,272.1,561.1,272.2,561.1L272.2,561.1z M272.8,666.5
	l84.8,84.8c5.8,5.8,5.8,15.2,0.1,21c0,0,0,0-0.1,0.1l-4.4,4.4c-5.8,5.8-15.2,5.8-21,0.1c0,0,0,0-0.1-0.1l-85-85
	c-5.6-5.8-5.6-15,0-20.8l4.6-4.4C257.5,660.7,266.9,660.7,272.8,666.5C272.7,666.5,272.8,666.5,272.8,666.5L272.8,666.5z"/>
</svg>
