<?xml version="1.0" encoding="utf-8"?>
<!-- Generator: Adobe Illustrator 23.0.0, SVG Export Plug-In . SVG Version: 6.00 Build 0)  -->
<svg version="1.1" id="图标" xmlns="http://www.w3.org/2000/svg" xmlns:xlink="http://www.w3.org/1999/xlink" x="0px" y="0px"
	 viewBox="0 0 1024 1024" style="enable-background:new 0 0 1024 1024;" xml:space="preserve">
<style type="text/css">
	.st0{fill-rule:evenodd;clip-rule:evenodd;}
</style>
<path id="delete" class="st0" d="M607.9,768.1c-17.7,0-32.1-14.4-32.1-32.1V384c0.1-17.7,14.6-31.9,32.2-31.8
	c17.5,0.1,31.7,14.3,31.8,31.8v351.8C639.9,753.5,625.6,767.9,607.9,768.1z M415.9,768.1c-17.7,0-31.9-14.4-31.9-32.1c0,0,0,0,0,0
	V384c0.1-17.7,14.6-31.9,32.2-31.8c17.5,0.1,31.7,14.3,31.8,31.8v351.8C448,753.5,433.6,767.9,415.9,768.1L415.9,768.1z M928,224
	H768.1v-64c0.1-52.8-42.5-95.6-95.3-95.9H352.1c-53,0-96,42.9-96.1,95.9v64H96c-17.7,0-32,14.3-32,32c0,17.7,14.3,32,32,32l0,0h832
	c17.7,0,32-14.3,32-32C960,238.4,945.7,224,928,224L928,224z M320,160c0.1-17.7,14.5-31.9,32.1-31.9h320.7c17.3,0,31.2,14,31.2,31.2
	c0,0.2,0,0.4,0,0.7v64H319.9L320,160L320,160L320,160z M735.9,959.9H288.3c-53,0-96-42.9-96.1-95.9V383.5
	c0.1-17.7,14.6-31.9,32.2-31.8c17.5,0.1,31.7,14.3,31.8,31.8V864c0,17.7,14.4,31.9,32.1,31.9c0,0,0,0,0,0h447.9
	c17.6,0.1,31.8-14.1,31.9-31.7c0-0.1,0-0.1,0-0.2V384.8c0.1-17.7,14.6-31.9,32.2-31.8c17.5,0.1,31.7,14.3,31.8,31.8V864
	C831.8,916.9,788.9,959.8,735.9,959.9L735.9,959.9z"/>
</svg>
