<?xml version="1.0" encoding="utf-8"?>
<!-- Generator: Adobe Illustrator 23.0.0, SVG Export Plug-In . SVG Version: 6.00 Build 0)  -->
<svg version="1.1" id="图标" xmlns="http://www.w3.org/2000/svg" xmlns:xlink="http://www.w3.org/1999/xlink" x="0px" y="0px"
	 viewBox="0 0 1024 1024" style="enable-background:new 0 0 1024 1024;" xml:space="preserve">
<path id="flight" d="M836.9,312.1L703.3,352L385.9,135.5c-6-4.1-13.6-5.3-20.6-3.2l-80.7,24.1c-9,2.7-12.5,13.5-6.9,21l186.4,245.9
	l-225.3,67.2L130.1,447c-5.1-2-10.7-2.3-15.9-0.7l-40.6,12.1c-8.4,2.5-12.2,12.2-7.7,19.7l112.9,190.5L508,570.5l-21.2,307.9
	c-0.6,9.4,8.3,16.5,17.3,13.8l80.7-24.1c7-2.1,12.7-7.2,15.5-14l147-355l184-54.9c15.8-4.7,36.8-11,25.8-47.8
	C942.4,347.7,885.9,297.6,836.9,312.1L836.9,312.1z"/>
</svg>
