<svg xmlns="http://www.w3.org/2000/svg" width="72" height="72" viewBox="0 0 36 36">
  <defs>
    <style>
      .cls-1 {
        fill: #00a1ff;
        fill-rule: evenodd;
        opacity: 0.85;
      }
    </style>
  </defs>
  <path id="icon_close" class="cls-1" d="M3187,401a18,18,0,1,1,18-18A18,18,0,0,1,3187,401Zm0-20.121-7.43-7.434a1.5,1.5,0,0,0-2.12.007h0a1.5,1.5,0,0,0-.01,2.109s0,0,.01.006l7.43,7.433-7.44,7.431a1.5,1.5,0,0,0,.01,2.115h0a1.493,1.493,0,0,0,2.11.014s0,0,.01-0.007l7.43-7.432,7.43,7.432a1.5,1.5,0,0,0,2.12-.007h0a1.5,1.5,0,0,0,.01-2.109s0,0-.01-0.006L3189.12,383l7.43-7.431a1.5,1.5,0,0,0,0-2.115h0a1.492,1.492,0,0,0-2.11-.014c-0.01,0-.01,0-0.01.006Z" transform="translate(-3169 -365)"/>
</svg>
