<?xml version="1.0" encoding="utf-8"?>
<!-- Generator: Adobe Illustrator 23.0.0, SVG Export Plug-In . SVG Version: 6.00 Build 0)  -->
<svg version="1.1" id="组_2503" xmlns="http://www.w3.org/2000/svg" xmlns:xlink="http://www.w3.org/1999/xlink" x="0px" y="0px"
	 viewBox="0 0 60 60" style="enable-background:new 0 0 60 60;" xml:space="preserve">
<style type="text/css">
	.st0{fill:url(#SVGID_1_);}
	.st1{fill:#FFFFFF;}
	.st2{enable-background:new    ;}
	.st3{fill:#3B53CD;}
</style>
<g id="椭圆_1185">
	<linearGradient id="SVGID_1_" gradientUnits="userSpaceOnUse" x1="30" y1="59" x2="30" y2="1">
		<stop  offset="0" style="stop-color:#D7D7D7"/>
		<stop  offset="1" style="stop-color:#FFFFFF"/>
	</linearGradient>
	<circle class="st0" cx="30" cy="30" r="29"/>
	<path class="st1" d="M30,2c15.4,0,28,12.6,28,28S45.4,58,30,58S2,45.4,2,30S14.6,2,30,2 M30,0C13.4,0,0,13.4,0,30s13.4,30,30,30
		s30-13.4,30-30S46.6,0,30,0L30,0z"/>
</g>
<g class="st2">
	<path class="st3" d="M30,12.6c-7.8,0-14.1,6.3-14.1,14.1S22.2,40.8,30,40.8s14.1-6.3,14.1-14.1C44.1,18.9,37.8,12.6,30,12.6z
		 M22.4,18.7c0-0.9,0.7-1.7,1.7-1.7s1.7,0.7,1.7,1.7c0,0.9-0.7,1.7-1.7,1.7S22.4,19.6,22.4,18.7z M30,32.6c-3.3,0-5.9-2.6-5.9-5.9
		c0-3.3,2.6-5.9,5.9-5.9c3.3,0,5.9,2.6,5.9,5.9S33.3,32.6,30,32.6z"/>
	<path class="st3" d="M40.6,39.2C38,42.1,34.2,44,30,44c-4.1,0-7.8-1.8-10.4-4.6l-2.6,6c-0.5,1.1,0.5,2.1,2.1,2.1h21.9
		c1.7,0,2.6-1,2.1-2.1L40.6,39.2L40.6,39.2z"/>
</g>
</svg>
