<?xml version="1.0" encoding="utf-8"?>
<!-- Generator: Adobe Illustrator 23.0.0, SVG Export Plug-In . SVG Version: 6.00 Build 0)  -->
<svg version="1.1" id="图层_1" xmlns="http://www.w3.org/2000/svg" xmlns:xlink="http://www.w3.org/1999/xlink" x="0px" y="0px"
	 viewBox="0 0 58 52" style="enable-background:new 0 0 58 52;" xml:space="preserve">
<style type="text/css">
	.st0{fill-rule:evenodd;clip-rule:evenodd;fill:url(#icon_layer_1_);}
</style>
<linearGradient id="icon_layer_1_" gradientUnits="userSpaceOnUse" x1="29" y1="52" x2="29" y2="0">
	<stop  offset="0" style="stop-color:#3C95E7"/>
	<stop  offset="1" style="stop-color:#CBE2FF"/>
</linearGradient>
<path id="icon_layer" class="st0" d="M55.3,35.3c-0.4,0-0.7,0.1-1,0.2h0l0,0L29,46.2L3.8,35.5c0,0,0,0,0,0l0,0h0
	c-1.4-0.5-3,0.2-3.5,1.6c-0.5,1.4,0.1,2.9,1.4,3.5l0,0l26.3,11.1h0c0.7,0.3,1.4,0.3,2.1,0h0l26.2-11.1l0,0c1.4-0.6,2-2.2,1.5-3.6
	c0,0,0,0,0,0C57.4,36,56.4,35.3,55.3,35.3z M1.7,16.5L1.7,16.5l26.3,11.1h0v0l0,0c0.7,0.3,1.4,0.3,2.1,0l0,0l0,0h0l26.2-11.1l0,0
	c1.4-0.6,2-2.2,1.5-3.6c-0.3-0.7-0.8-1.2-1.5-1.5l0,0L30.1,0.2h0l0,0l0,0c-0.7-0.3-1.4-0.3-2.1,0l0,0v0h0L1.7,11.3l0,0
	c-1.4,0.6-2,2.2-1.5,3.6C0.5,15.7,1,16.2,1.7,16.5L1.7,16.5z M55.3,23.2c-0.4,0-0.7,0.1-1,0.2l0,0l0,0h0L29,34.1L3.8,23.4h0l0,0l0,0
	c-1.4-0.6-3,0.1-3.5,1.6c-0.5,1.4,0.1,3,1.4,3.6l0,0l26.3,11.1h0c0.7,0.3,1.4,0.3,2.1,0h0l26.2-11.1v0c1.4-0.6,2-2.2,1.5-3.6
	c0,0,0,0,0,0C57.4,23.9,56.4,23.2,55.3,23.2L55.3,23.2z"/>
</svg>
