<?xml version="1.0" encoding="utf-8"?>
<!-- Generator: Adobe Illustrator 23.0.0, SVG Export Plug-In . SVG Version: 6.00 Build 0)  -->
<svg version="1.1" id="图标" xmlns="http://www.w3.org/2000/svg" xmlns:xlink="http://www.w3.org/1999/xlink" x="0px" y="0px"
	 viewBox="0 0 51 43" style="enable-background:new 0 0 51 43;" xml:space="preserve">
<style type="text/css">
	.st0{fill-rule:evenodd;clip-rule:evenodd;fill:#015396;}
</style>
<g id="search">
	<path class="st0" d="M31.3,13.8c-0.3,0-0.5-0.1-0.7-0.3c-0.4-0.3-0.9-0.7-1.4-0.9c-0.7-0.4-0.9-1.3-0.4-2c0.4-0.6,1.2-0.8,1.8-0.5
		c0.6,0.3,1.2,0.7,1.8,1.2c0.6,0.5,0.7,1.4,0.3,2C32.3,13.6,31.8,13.8,31.3,13.8"/>
	<path class="st0" d="M10.6,15.5c-0.3,0-0.6-0.1-0.9-0.3c-0.7-0.4-0.8-1.3-0.4-2l0,0C13,7.9,19.9,5.7,26,7.9
		c0.7,0.3,1.1,1.1,0.9,1.8c-0.3,0.7-1.1,1.1-1.8,0.9h0c-4.9-1.8-10.4,0-13.3,4.2C11.4,15.2,11,15.5,10.6,15.5"/>
	<path class="st0" d="M50.2,39.4C50.2,39.4,50.2,39.4,50.2,39.4l-9.9-6.7C46.5,22.5,43.2,9.3,33,3.1C22.7-3,9.4,0.2,3.1,10.4
		c-6.2,10.2-2.9,23.4,7.3,29.5c9.1,5.4,20.8,3.6,27.7-4.3l10,6.8c0.8,0.6,2,0.4,2.5-0.4C51.2,41.1,51,40,50.2,39.4z M36.7,31.5
		C36.7,31.5,36.7,31.5,36.7,31.5C36.7,31.6,36.7,31.6,36.7,31.5c-0.3,0.4-0.5,0.7-0.7,1c0,0,0,0.1,0,0.1c0,0.1-0.1,0.1-0.1,0.2
		c-0.4,0.5-0.8,0.9-1.2,1.4c-0.2,0.2-0.4,0.4-0.7,0.6c-0.3,0.3-0.6,0.5-0.9,0.7c-0.3,0.2-0.5,0.4-0.8,0.6c-0.3,0.2-0.5,0.4-0.8,0.5
		c-0.3,0.2-0.6,0.4-0.9,0.5c-0.3,0.2-0.7,0.3-1,0.5c-0.2,0.1-0.5,0.2-0.7,0.3l0,0c-2.2,0.9-4.6,1.4-7,1.4c0,0,0,0-0.1,0
		c-8.8,0-16.1-6.2-17.8-14.4c-0.7-3.4-0.4-7,1-10.5C8.8,5.4,19.4,1.1,28.6,4.9c2.2,0.9,4.2,2.2,5.9,3.9c1.5,1.5,2.8,3.3,3.6,5.3
		c1,2.3,1.6,4.8,1.6,7.4C39.8,25.2,38.7,28.6,36.7,31.5z"/>
</g>
</svg>
