<?xml version="1.0" encoding="utf-8"?>
<!-- Generator: Adobe Illustrator 23.0.0, SVG Export Plug-In . SVG Version: 6.00 Build 0)  -->
<svg version="1.1" id="图标" xmlns="http://www.w3.org/2000/svg" xmlns:xlink="http://www.w3.org/1999/xlink" x="0px" y="0px"
	 viewBox="0 0 45 45" style="enable-background:new 0 0 45 45;" xml:space="preserve">
<style type="text/css">
	.st0{fill:#5980A8;}
</style>
<path id="run" class="st0" d="M25.8,22.7c0-2-1.5-3.6-3.5-3.6s-3.6,1.5-3.6,3.5s1.5,3.6,3.5,3.6c0,0,0,0,0,0
	C24.2,26.2,25.8,24.6,25.8,22.7C25.8,22.7,25.8,22.7,25.8,22.7z M44.9,23.5c0.2-6.7-2.5-13.1-7.4-17.5l-8.6,9.3
	c-1.3-1.2-2.9-1.9-4.6-2.3V0H23C16.3,0,9.9,2.8,5.5,7.9l9.5,8.2c-1.5,1.6-2.4,3.6-2.6,5.7L0.2,21.4H0.1C0,21.8,0,22.3,0,22.7
	c-0.2,6.7,2.5,13.1,7.4,17.5l8.9-9.6c0,0-0.1-0.1-0.1-0.1c1.3,1,2.9,1.7,4.6,1.9V45h1.3c6.7,0,13-2.9,17.5-7.9l-9.6-8.3
	c1-1.3,1.7-2.8,2-4.4l12.7,0.4h0.1C44.9,24.4,45,24,44.9,23.5L44.9,23.5z M15.9,22.7c-0.1-3.6,2.8-6.5,6.4-6.6
	c3.6-0.1,6.5,2.8,6.6,6.4c0.1,3.6-2.8,6.5-6.4,6.6c0,0-0.1,0-0.1,0C18.8,29.1,15.9,26.2,15.9,22.7L15.9,22.7z"/>
</svg>
