<?xml version="1.0" encoding="utf-8"?>
<!-- Generator: Adobe Illustrator 23.0.0, SVG Export Plug-In . SVG Version: 6.00 Build 0)  -->
<svg version="1.1" id="图层_1" xmlns="http://www.w3.org/2000/svg" xmlns:xlink="http://www.w3.org/1999/xlink" x="0px" y="0px"
	 viewBox="0 0 68 78" style="enable-background:new 0 0 68 78;" xml:space="preserve">
<style type="text/css">
	.st0{fill:url(#SVGID_1_);}
</style>
<linearGradient id="SVGID_1_" gradientUnits="userSpaceOnUse" x1="34" y1="78" x2="34" y2="-9.094947e-13">
	<stop  offset="0" style="stop-color:#3C95E7"/>
	<stop  offset="1" style="stop-color:#CBE2FF"/>
</linearGradient>
<path class="st0" d="M61.2,68.8c2.5,0,4.5,2.1,4.5,4.6s-2,4.6-4.5,4.6H6.8c-2.5,0-4.5-2.1-4.5-4.6s2-4.6,4.5-4.6H61.2z M34,18.4
	c15,0,27.2,12.3,27.2,27.5l0,0v18.4H6.8V45.9C6.8,30.7,19,18.4,34,18.4L34,18.4z M38.5,27.5L24.9,41.3h6.8l-2.3,13.8l13.6-13.8
	l-6.8,0L38.5,27.5z M3.2,16.2l0.4,0.2l6.8,4.6c1,0.7,1.3,2.1,0.6,3.2c-0.6,0.9-1.8,1.3-2.8,0.8l-0.4-0.2L1,20.3
	c-1-0.7-1.3-2.1-0.6-3.2C1,16.2,2.2,15.8,3.2,16.2L3.2,16.2z M67.6,17.1c0.6,0.9,0.5,2.1-0.3,2.9L67,20.3l-6.8,4.6L59.8,25
	c-1.1,0.5-2.5,0-3-1.2c-0.4-0.9-0.2-1.9,0.5-2.6l0.3-0.3l6.8-4.6l0.4-0.2C65.8,15.8,67,16.2,67.6,17.1z M17.5,5.3l0.3,0.3l4.5,6.9
	c0.7,1.1,0.4,2.5-0.6,3.2c-0.9,0.6-2.1,0.5-2.9-0.3L18.5,15L14,8.2c-0.7-1-0.4-2.5,0.6-3.2C15.5,4.3,16.7,4.5,17.5,5.3L17.5,5.3z
	 M53.4,5c0.9,0.6,1.3,1.8,0.8,2.8L54,8.2L49.5,15l-0.3,0.3c-0.9,0.9-2.3,1-3.2,0.1c-0.7-0.7-0.9-1.7-0.5-2.6l0.2-0.4l4.5-6.9
	l0.3-0.3C51.3,4.5,52.5,4.4,53.4,5z M34,0c1.1,0,2,0.8,2.2,1.9l0,0.4v9.2c0,1.3-1,2.3-2.3,2.3c-1.1,0-2-0.8-2.2-1.9l0-0.4V2.3
	C31.7,1,32.8,0,34,0L34,0z"/>
</svg>
