<?xml version="1.0" encoding="utf-8"?>
<!-- Generator: Adobe Illustrator 23.0.0, SVG Export Plug-In . SVG Version: 6.00 Build 0)  -->
<svg version="1.1" id="图层_1" xmlns="http://www.w3.org/2000/svg" xmlns:xlink="http://www.w3.org/1999/xlink" x="0px" y="0px"
	 viewBox="0 0 51 51" style="enable-background:new 0 0 51 51;" xml:space="preserve">
<style type="text/css">
	.st0{fill:url(#SVGID_1_);}
</style>
<linearGradient id="SVGID_1_" gradientUnits="userSpaceOnUse" x1="25.5" y1="50.9993" x2="25.5" y2="7.058981e-04">
	<stop  offset="0" style="stop-color:#3C95E7"/>
	<stop  offset="1" style="stop-color:#CBE2FF"/>
</linearGradient>
<path class="st0" d="M5.5,19.4L37.1,51H5.7C2.5,51,0,48.5,0,45.3L0,25L5.5,19.4z M28.9,0c-3.1,2.9-4.9,7-4.9,11.3
	c0,4.1,1.6,7.9,4.2,10.6l0.3,0.3l10,10c0.5,0.5,1.3,0.5,1.9,0.1l0.1-0.1l10-10c0.1-0.1,0.2-0.2,0.3-0.3v23.4c0,3.1-2.5,5.7-5.7,5.7
	h-2.2L8.6,16.4L25,0H28.9L28.9,0z M39.7,0C45.9,0,51,5.3,51,11.9c0,3.3-1.3,6.3-3.3,8.4L40.4,28c-0.4,0.4-1,0.4-1.4,0c0,0,0,0,0,0
	l-7.3-7.7c-2.1-2.2-3.3-5.1-3.3-8.4C28.3,5.3,33.4,0,39.7,0L39.7,0z M19,0L0,19V5.7C0,2.5,2.5,0,5.7,0H19z M39.7,5.7
	c-3.1,0-5.7,2.5-5.7,5.7s2.5,5.7,5.7,5.7c0,0,0,0,0,0c3.1,0,5.7-2.5,5.7-5.7C45.3,8.2,42.8,5.7,39.7,5.7z"/>
</svg>
