<?xml version="1.0" encoding="utf-8"?>
<!-- Generator: Adobe Illustrator 23.0.0, SVG Export Plug-In . SVG Version: 6.00 Build 0)  -->
<svg version="1.1" id="图层_1" xmlns="http://www.w3.org/2000/svg" xmlns:xlink="http://www.w3.org/1999/xlink" x="0px" y="0px"
	 viewBox="0 0 30 28" style="enable-background:new 0 0 30 28;" xml:space="preserve">
<style type="text/css">
	.st0{opacity:0.8;fill:#FFFFFF;}
</style>
<path class="st0" d="M13.3,0c-2.9,0-5.6,1-7.9,2.8c-5.9,4.6-7.2,13.4-2.8,19.6s12.7,7.5,18.6,2.9l0,0c0.7-0.5,0.8-1.5,0.3-2.2
	s-1.4-0.8-2.1-0.3c-1.7,1.3-3.8,2.1-6,2.1C7.8,24.9,3.1,20.1,3,14C3,9.6,5.6,5.6,9.5,4c5.3-2.3,11.4,0.4,13.5,6h-3.2
	c-0.1,0-0.2,0-0.3,0.1c-0.2,0.2-0.2,0.5-0.1,0.7l4.9,6.9l0.1,0.1c0.2,0.2,0.5,0.1,0.6-0.1l4.9-6.9c0.1-0.1,0.1-0.2,0.1-0.3
	c0-0.3-0.2-0.5-0.5-0.5h-3.4C24.4,4.1,19.2,0.1,13.3,0L13.3,0z"/>
</svg>
