<?xml version="1.0" encoding="utf-8"?>
<!-- Generator: Adobe Illustrator 23.0.0, SVG Export Plug-In . SVG Version: 6.00 Build 0)  -->
<svg version="1.1" id="图层_1" xmlns="http://www.w3.org/2000/svg" xmlns:xlink="http://www.w3.org/1999/xlink" x="0px" y="0px"
	 viewBox="0 0 98 98" style="enable-background:new 0 0 98 98;" xml:space="preserve">
<style type="text/css">
	.st0{fill:none;}
</style>
<g>
	<path id="矩形_1952" class="st0" d="M16,8h64c4.4,0,8,3.6,8,8v64c0,4.4-3.6,8-8,8H16c-4.4,0-8-3.6-8-8V16C8,11.6,11.6,8,16,8z"/>
</g>
<g>
	<g>
		<path class="st1" d="M80,89H16c-5,0-9-4-9-9V16c0-5,4-9,9-9h64c5,0,9,4,9,9v64C89,85,85,89,80,89z M16,9c-3.9,0-7,3.1-7,7v64
			c0,3.9,3.1,7,7,7h64c3.9,0,7-3.1,7-7V16c0-3.9-3.1-7-7-7H16z"/>
	</g>
</g>
</svg>
