<?xml version="1.0" encoding="utf-8"?>
<!-- Generator: Adobe Illustrator 23.0.0, SVG Export Plug-In . SVG Version: 6.00 Build 0)  -->
<svg version="1.1" id="图层_1" xmlns="http://www.w3.org/2000/svg" xmlns:xlink="http://www.w3.org/1999/xlink" x="0px" y="0px"
	 viewBox="0 0 36 38" style="enable-background:new 0 0 36 38;" xml:space="preserve">
<style type="text/css">
	.st0{fill:#5980A8;}
</style>
<path class="st0" d="M36,15.9c0,3.4-2.7,6.1-6,6.1c0,0,0,0,0,0H7.2c-4,0-7.2-3.3-7.2-7.4s3.2-7.4,7.2-7.4c0.1,0,0.2,0,0.3,0
	C8.8,2.1,14.1-1,19.2,0.3c2.6,0.7,4.9,2.5,6.1,5c2.1-1,4.6,0,5.5,2.2c0.2,0.5,0.4,1.1,0.4,1.7c0,0.2,0,0.5-0.1,0.7
	C34,10.5,36,13,36,15.9z"/>
<path class="st0" d="M18.5,23.4c0,0,1.9,4.5,1.5,6.1c-0.4,1.6-2,2.6-3.6,2.2s-2.6-2.1-2.2-3.7c0,0,0-0.1,0-0.1
	C14.6,26.3,18.5,23.4,18.5,23.4z"/>
<path class="st0" d="M5.3,23.4c0,0,1.9,4.5,1.5,6.1c-0.4,1.6-2,2.6-3.6,2.2S0.6,29.7,1,28c0,0,0,0,0-0.1C1.4,26.3,5.3,23.4,5.3,23.4
	z"/>
<path class="st0" d="M31.7,23.4c0,0,1.9,4.5,1.5,6.1c-0.4,1.6-2,2.6-3.6,2.2c-1.6-0.4-2.6-2.1-2.2-3.7c0,0,0-0.1,0-0.1
	C27.8,26.3,31.7,23.4,31.7,23.4z"/>
<path class="st0" d="M11.3,29.6c0,0,1.9,4.5,1.5,6.1c-0.4,1.6-2,2.6-3.6,2.2c-1.6-0.4-2.6-2.1-2.2-3.7c0,0,0-0.1,0-0.1
	C7.4,32.5,11.3,29.6,11.3,29.6z M24.5,29.6c0,0,1.9,4.5,1.5,6.1c-0.4,1.6-2,2.6-3.6,2.2c-1.6-0.4-2.6-2.1-2.2-3.7c0,0,0,0,0-0.1
	C20.6,32.5,24.5,29.6,24.5,29.6L24.5,29.6z"/>
</svg>
