<?xml version="1.0" encoding="utf-8"?>
<!-- Generator: Adobe Illustrator 23.0.0, SVG Export Plug-In . SVG Version: 6.00 Build 0)  -->
<svg version="1.1" id="图标" xmlns="http://www.w3.org/2000/svg" xmlns:xlink="http://www.w3.org/1999/xlink" x="0px" y="0px"
	 viewBox="0 0 54 62" style="enable-background:new 0 0 54 62;" xml:space="preserve">
<style type="text/css">
	.st0{fill:#00E283;}
</style>
<path id="secure_1_" class="st0" d="M54,5.2v31.6c0,1.9-0.5,3.8-1.4,5.7c-0.9,1.9-2.1,3.7-3.5,5.5c-1.5,1.8-3.1,3.4-5,5
	c-1.9,1.6-3.8,3-5.7,4.2s-3.8,2.3-5.6,3.1C31,61,29.4,61.6,28,61.9L27.4,62l-0.6-0.1c-1.4-0.3-3-0.9-4.9-1.7
	c-1.9-0.8-3.8-1.8-5.8-3.1c-2-1.2-4-2.6-5.9-4.2c-1.9-1.6-3.6-3.2-5.2-5c-1.5-1.8-2.7-3.6-3.7-5.5C0.5,40.6,0,38.7,0,36.8V5.2
	l2.2-0.3L27.1,0l25.3,4.9L54,5.2L54,5.2z M27.1,4.6l-0.3-0.1L5.4,8.3v19.9h21.6V4.6L27.1,4.6z M48.6,28.3H27.1v28.4
	c1.4-0.3,2.9-0.8,4.5-1.5c1.6-0.7,3.2-1.5,4.8-2.4c1.6-0.9,3.1-2,4.6-3.1c1.5-1.1,2.8-2.4,3.9-3.7c1.1-1.3,2-2.7,2.7-4.1
	c0.7-1.4,1-2.9,1-4.3L48.6,28.3L48.6,28.3z"/>
</svg>
