<?xml version="1.0" encoding="utf-8"?>
<!-- Generator: Adobe Illustrator 23.0.0, SVG Export Plug-In . SVG Version: 6.00 Build 0)  -->
<svg version="1.1" id="组_2503_拷贝_2" xmlns="http://www.w3.org/2000/svg" xmlns:xlink="http://www.w3.org/1999/xlink" x="0px"
	 y="0px" viewBox="0 0 60 60" style="enable-background:new 0 0 60 60;" xml:space="preserve">
<style type="text/css">
	.st0{fill:url(#SVGID_1_);}
	.st1{fill:#FFFFFF;}
	.st2{fill:#00A0E9;}
</style>
<g id="椭圆_1185">
	<linearGradient id="SVGID_1_" gradientUnits="userSpaceOnUse" x1="30" y1="59" x2="30" y2="1">
		<stop  offset="0" style="stop-color:#D7D7D7"/>
		<stop  offset="1" style="stop-color:#FFFFFF"/>
	</linearGradient>
	<circle class="st0" cx="30" cy="30" r="29"/>
	<path class="st1" d="M30,2c15.4,0,28,12.6,28,28S45.4,58,30,58S2,45.4,2,30S14.6,2,30,2 M30,0C13.4,0,0,13.4,0,30s13.4,30,30,30
		s30-13.4,30-30S46.6,0,30,0L30,0z"/>
</g>
<path class="st2" d="M32,13.5l-2-2.3l-2,2.3c-0.7,0.8-4.2,5-7.2,10c-1.1,1.8-2,3.7-2.8,5.6c-0.8,2.2-1.4,4.3-1.4,6.3
	c0,1.2,0.2,2.4,0.5,3.6c0.5,1.7,1.3,3.3,2.3,4.7c2.5,3.2,6.3,5.2,10.5,5.2c7.4,0,13.4-6.1,13.4-13.5C43.4,26.9,33.2,14.8,32,13.5z
	 M36.2,43.3c-2.1,1.5-4.5,2.1-6.6,1.8c-0.5-0.1-1.1-0.2-1.5-0.5c1.6-0.5,3.1-1.3,4.5-2.2c3.1-2.2,5.4-5.3,6-8.4
	c0.7,0.5,1.6,1.7,1.6,3C40.1,39.2,38.5,41.7,36.2,43.3z"/>
</svg>
