<?xml version="1.0" encoding="utf-8"?>
<!-- Generator: Adobe Illustrator 23.0.0, SVG Export Plug-In . SVG Version: 6.00 Build 0)  -->
<svg version="1.1" id="组_2502" xmlns="http://www.w3.org/2000/svg" xmlns:xlink="http://www.w3.org/1999/xlink" x="0px" y="0px"
	 viewBox="0 0 60 60" style="enable-background:new 0 0 60 60;" xml:space="preserve">
<style type="text/css">
	.st0{fill:url(#SVGID_1_);}
	.st1{fill:#FFFFFF;}
	.st2{fill:#1296DB;}
	.st3{fill-rule:evenodd;clip-rule:evenodd;fill:#1296DB;}
</style>
<g id="椭圆_1185">
	<linearGradient id="SVGID_1_" gradientUnits="userSpaceOnUse" x1="30" y1="59" x2="30" y2="1">
		<stop  offset="0" style="stop-color:#D7D7D7"/>
		<stop  offset="1" style="stop-color:#FFFFFF"/>
	</linearGradient>
	<circle class="st0" cx="30" cy="30" r="29"/>
	<path class="st1" d="M30,2c15.4,0,28,12.6,28,28S45.4,58,30,58S2,45.4,2,30S14.6,2,30,2 M30,0C13.4,0,0,13.4,0,30s13.4,30,30,30
		s30-13.4,30-30S46.6,0,30,0L30,0z"/>
</g>
<g id="椭圆_1205">
	<path class="st2" d="M30,44.6c-8.1,0-14.6-6.6-14.6-14.6c0-8.1,6.6-14.6,14.6-14.6c8.1,0,14.6,6.6,14.6,14.6
		C44.6,38.1,38.1,44.6,30,44.6z M30,16.4c-7.5,0-13.6,6.1-13.6,13.6S22.5,43.6,30,43.6S43.6,37.5,43.6,30S37.5,16.4,30,16.4z"/>
</g>
<path id="椭圆_1205_拷贝" class="st3" d="M44.1,30c0,7.8-6.3,14.1-14.1,14.1S15.9,37.8,15.9,30"/>
</svg>
