<?xml version="1.0" encoding="utf-8"?>
<!-- Generator: Adobe Illustrator 23.0.0, SVG Export Plug-In . SVG Version: 6.00 Build 0)  -->
<svg version="1.1" id="图标" xmlns="http://www.w3.org/2000/svg" xmlns:xlink="http://www.w3.org/1999/xlink" x="0px" y="0px"
	 viewBox="0 0 45 47" style="enable-background:new 0 0 45 47;" xml:space="preserve">
<style type="text/css">
	.st0{fill:#5980A8;}
</style>
<g id="score">
	<path class="st0" d="M6.5,29.5l-6,6c-0.3,0.3-0.7,1.3-0.3,2c0.3,0.7,0.7,1.3,1.3,1.3l5.3,1.3l1.3,5.4C8.5,46.3,8.8,47,9.5,47h0.7
		c0.7,0,1-0.3,1.3-0.7l8.7-8.7C14.2,36.9,9.5,33.9,6.5,29.5z M44.2,35.6l-5.7-5.7c-3,4.4-8,7.4-13.4,8.1l8.3,8.4
		c0.3,0.3,1,0.7,1.3,0.7h0.7c0.7-0.3,1.3-0.7,1.3-1.3l1.3-5.4l5.3-1.3c0.7-0.3,1.3-0.7,1.3-1.3C45.2,36.9,44.9,36.3,44.2,35.6
		L44.2,35.6z"/>
	<path class="st0" d="M22.5,0c-10,0-18,8.1-18,18.1c0,10.1,8,18.1,18,18.1s18-8.1,18-18.1C40.5,8.1,32.5,0,22.5,0z M28.5,27.5
		l-6-3.4l-6,3.4l1-6.7l-4.7-5l6.7-1l3-6l3,6l6.7,1l-4.7,4.7L28.5,27.5L28.5,27.5z"/>
</g>
</svg>
