<?xml version="1.0" encoding="utf-8"?>
<!-- Generator: Adobe Illustrator 23.0.0, SVG Export Plug-In . SVG Version: 6.00 Build 0)  -->
<svg version="1.1" id="_-h-icon_video" xmlns="http://www.w3.org/2000/svg" xmlns:xlink="http://www.w3.org/1999/xlink" x="0px"
	 y="0px" viewBox="0 0 90 90" style="enable-background:new 0 0 90 90;" xml:space="preserve">
<style type="text/css">
	.st0{opacity:0.3;fill:#003C5F;enable-background:new    ;}
	.st1{fill:#FFFFFF;}
	.st2{fill-rule:evenodd;clip-rule:evenodd;fill:#FFFFFF;}
</style>
<circle id="椭圆_782" class="st0" cx="45" cy="45" r="45"/>
<path id="椭圆_782_拷贝" class="st1" d="M45,2c23.7,0,43,19.3,43,43S68.7,88,45,88S2,68.7,2,45S21.3,2,45,2 M45,0
	C20.1,0,0,20.1,0,45s20.1,45,45,45s45-20.1,45-45S69.9,0,45,0L45,0z"/>
<path id="形状_784" class="st2" d="M53.4,41.2l-11.3-8c-3.8-2.7-7.1-0.9-7.1,4.1v18.2c0,5,3.1,6.8,7.1,4.1l11.3-8
	C57.2,48.5,57.2,44,53.4,41.2z"/>
</svg>
