<?xml version="1.0" encoding="utf-8"?>
<!-- Generator: Adobe Illustrator 23.0.0, SVG Export Plug-In . SVG Version: 6.00 Build 0)  -->
<svg version="1.1" id="图层_1" xmlns="http://www.w3.org/2000/svg" xmlns:xlink="http://www.w3.org/1999/xlink" x="0px" y="0px"
	 viewBox="0 0 56 62" style="enable-background:new 0 0 56 62;" xml:space="preserve">
<style type="text/css">
	.st0{fill:#0BC6FD;}
	.st1{fill-rule:evenodd;clip-rule:evenodd;fill:#0BC6FD;}
</style>
<g id="组_2463_拷贝">
	<g>
		<g>
			<g>
				<g>
					<g id="形状_1105_10_">
						<path class="st0" d="M28,62c-1,0-2-0.2-2.9-0.7L2.8,48.6C1,47.6,0,45.7,0,43.7V18.3c0-2,1.1-3.9,2.8-4.9L25.1,0.8
							c1.8-1,4-1,5.7,0l22.3,12.7c1.8,1,2.8,2.9,2.8,4.9v25.4c0,2-1.1,3.9-2.8,4.9L30.9,61.3C30,61.8,29,62,28,62z M28,1
							c-0.8,0-1.7,0.2-2.4,0.6L3.3,14.3c-1.4,0.8-2.3,2.4-2.3,4v25.4c0,1.7,0.9,3.2,2.4,4.1l22.3,12.7c1.5,0.8,3.3,0.8,4.8,0
							l22.3-12.7c1.5-0.8,2.4-2.4,2.4-4.1V18.3c0-1.7-0.9-3.2-2.4-4.1L30.4,1.6C29.7,1.2,28.8,1,28,1z"/>
					</g>
					<path id="形状_1105_拷贝_13_" class="st1" d="M41.4,37.2V24.9c0-0.9-0.5-1.7-1.3-2.2l-10.8-6.2c-0.8-0.4-1.8-0.4-2.5,0
						L16,22.7c-0.8,0.4-1.3,1.3-1.3,2.2v12.3c0,0.9,0.5,1.7,1.3,2.2l10.8,6.2c0.8,0.4,1.8,0.4,2.5,0l10.8-6.2
						C40.9,38.9,41.4,38.1,41.4,37.2z"/>
				</g>
			</g>
		</g>
	</g>
</g>
</svg>
