<?xml version="1.0" encoding="utf-8"?>
<!-- Generator: Adobe Illustrator 23.0.0, SVG Export Plug-In . SVG Version: 6.00 Build 0)  -->
<svg version="1.1" id="图层_1" xmlns="http://www.w3.org/2000/svg" xmlns:xlink="http://www.w3.org/1999/xlink" x="0px" y="0px"
	 viewBox="0 0 53 51" style="enable-background:new 0 0 53 51;" xml:space="preserve">
<style type="text/css">
	.st0{fill:url(#SVGID_1_);}
</style>
<linearGradient id="SVGID_1_" gradientUnits="userSpaceOnUse" x1="26.5" y1="51" x2="26.5" y2="-9.094947e-13">
	<stop  offset="0" style="stop-color:#3C95E7"/>
	<stop  offset="1" style="stop-color:#CBE2FF"/>
</linearGradient>
<path class="st0" d="M46.3,6.9h-9.9V3.4C36.4,1.6,35,0,33.1,0H19.8c-1.8,0-3.3,1.5-3.3,3.4v3.4H6.7c-3.6,0-6.6,3-6.6,6.8v8.5H53
	v-8.5C53,9.8,50,6.9,46.3,6.9L46.3,6.9z M19.8,6.9V5.1c0-0.9,0.8-1.7,1.7-1.7h9.9c0.9,0,1.7,0.8,1.7,1.7l0.1,1.8H19.8z M29.8,27.2
	c0-0.6-0.2-1.1-0.5-1.7h-5.7c-0.3,0.5-0.5,1.1-0.5,1.7c-0.1,1.9,1.4,3.4,3.3,3.4C28.3,30.6,29.8,29.1,29.8,27.2z M33.1,27.2
	c0,3.7-3,6.8-6.6,6.8c-3.6,0-6.6-3-6.6-6.8c0-0.6,0.1-1.1,0.2-1.7H0v18.7C0,48,3,51,6.6,51h39.7c3.6,0,6.6-3,6.6-6.8V25.5H32.9
	C33,26,33.1,26.6,33.1,27.2z"/>
</svg>
