<?xml version="1.0" encoding="utf-8"?>
<!-- Generator: Adobe Illustrator 23.0.0, SVG Export Plug-In . SVG Version: 6.00 Build 0)  -->
<svg version="1.1" id="组_2503_拷贝_3" xmlns="http://www.w3.org/2000/svg" xmlns:xlink="http://www.w3.org/1999/xlink" x="0px"
	 y="0px" viewBox="0 0 60 60" style="enable-background:new 0 0 60 60;" xml:space="preserve">
<style type="text/css">
	.st0{fill:url(#SVGID_1_);}
	.st1{fill:#FFFFFF;}
	.st2{enable-background:new    ;}
	.st3{fill:#0BA9A0;}
</style>
<g id="椭圆_1185">
	<linearGradient id="SVGID_1_" gradientUnits="userSpaceOnUse" x1="30" y1="59" x2="30" y2="1">
		<stop  offset="0" style="stop-color:#D7D7D7"/>
		<stop  offset="1" style="stop-color:#FFFFFF"/>
	</linearGradient>
	<circle class="st0" cx="30" cy="30" r="29"/>
	<path class="st1" d="M30,2c15.4,0,28,12.6,28,28S45.4,58,30,58S2,45.4,2,30S14.6,2,30,2 M30,0C13.4,0,0,13.4,0,30s13.4,30,30,30
		s30-13.4,30-30S46.6,0,30,0L30,0z"/>
</g>
<g class="st2">
	<path class="st3" d="M30,20.2c1.3,0,2.6,0.3,3.8,0.8c1.2,0.5,2.2,1.2,3.1,2.1c0.9,0.9,1.6,2,2.1,3.1c0.5,1.2,0.8,2.5,0.8,3.8
		s-0.3,2.6-0.8,3.8C38.6,35,37.9,36.1,37,37c-0.9,0.9-2,1.6-3.1,2.1c-1.2,0.5-2.5,0.8-3.8,0.8s-2.6-0.3-3.8-0.8
		C25,38.6,23.9,37.9,23,37c-0.9-0.9-1.6-2-2.1-3.1c-0.5-1.2-0.8-2.5-0.8-3.8s0.3-2.6,0.8-3.8c0.5-1.2,1.2-2.2,2.1-3.1
		c0.9-0.9,2-1.6,3.1-2.1C27.4,20.4,28.7,20.2,30,20.2 M30,16.3c-7.6,0-13.7,6.1-13.7,13.7S22.4,43.7,30,43.7S43.7,37.6,43.7,30
		S37.6,16.3,30,16.3z"/>
	<path class="st3" d="M30,23.5c-3.6,0-6.5,2.9-6.5,6.5s2.9,6.5,6.5,6.5s6.5-2.9,6.5-6.5S33.6,23.5,30,23.5z M16.3,28h-2.6
		c-0.7,0-1.3,0.6-1.3,1.3v0c0,0.7,0.6,1.3,1.3,1.3h2.6c0.7,0,1.3-0.6,1.3-1.3v0C17.6,28.6,17,28,16.3,28z M46.3,28h-2.6
		c-0.7,0-1.3,0.6-1.3,1.3v0c0,0.7,0.6,1.3,1.3,1.3h2.6c0.7,0,1.3-0.6,1.3-1.3v0C47.6,28.6,47.1,28,46.3,28z M30,17.6
		c0.7,0,1.3-0.6,1.3-1.3v-2.6c0-0.7-0.6-1.3-1.3-1.3s-1.3,0.6-1.3,1.3v2.6C28.7,17,29.3,17.6,30,17.6z M30,42.4
		c-0.7,0-1.3,0.6-1.3,1.3v2.6c0,0.7,0.6,1.3,1.3,1.3c0.7,0,1.3-0.6,1.3-1.3v-2.6C31.3,43,30.7,42.4,30,42.4z"/>
</g>
</svg>
