<?xml version="1.0" encoding="utf-8"?>
<!-- Generator: Adobe Illustrator 23.0.0, SVG Export Plug-In . SVG Version: 6.00 Build 0)  -->
<svg version="1.1" id="图层_1" xmlns="http://www.w3.org/2000/svg" xmlns:xlink="http://www.w3.org/1999/xlink" x="0px" y="0px"
	 viewBox="0 0 99 105" style="enable-background:new 0 0 99 105;" xml:space="preserve">
<style type="text/css">
	.st0{fill:#00BDFF;}
	.st1{fill:url(#XMLID_3_);}
	.st2{fill:#FCEE21;}
</style>
<g>
	<g id="图层_738">
		<path id="XMLID_1524_" class="st0" d="M36.4,95.2c0.3-1,0.1-2.2-0.1-3.5c-0.1-0.3-0.1-0.6-0.2-0.9c-0.1-0.4-0.2-0.9-0.2-1.3
			c-0.3-2.1-0.3-3.6-0.3-4.9v-0.5c0-0.5,0-0.9,0-1.3c0-0.2,0-0.4,0-0.6l0,0l0,0c-0.1,0.2-0.2,0.3-0.3,0.5c-0.2,0.3-0.5,0.7-0.8,1
			l-0.3,0.4c-0.8,1-1.8,2.2-3.4,3.6c-0.3,0.3-0.7,0.6-1,0.9c-0.2,0.2-0.4,0.4-0.7,0.6c-1,0.8-1.8,1.7-2.3,2.6
			c-0.1,0.2-0.2,0.4-0.2,0.6c-0.3,1-0.4,1.9-0.1,2.8c0,0.1,0.1,0.2,0.1,0.3c0.1,0.2,0.1,0.4,0.2,0.6c0,0.1,0.1,0.2,0.1,0.3
			c0.1,0.2,0.2,0.5,0.4,0.7c0.6,0.9,1.4,1.6,2.4,2l0,0l0,0c0.9,0.3,1.8,0.4,2.8,0.1c0.3-0.1,0.6-0.2,1-0.3c0.1-0.1,0.2-0.1,0.3-0.2
			c0.2-0.1,0.4-0.2,0.5-0.3c0.1-0.1,0.2-0.1,0.2-0.2c0.8-0.6,1.3-1.3,1.7-2.2C36.3,95.6,36.4,95.4,36.4,95.2z M30.1,98.5
			c-0.1,0-0.2,0-0.2-0.1c-0.1,0-0.1-0.1-0.2-0.1l0,0l0,0c0.1,0,0.2,0,0.3,0C30,98.4,30.1,98.5,30.1,98.5
			C30.2,98.5,30.2,98.5,30.1,98.5C30.2,98.5,30.1,98.5,30.1,98.5z"/>
	</g>
	<g id="图层_737">
		<path id="XMLID_6_" class="st0" d="M78.8,76.2c0.3-1,0.1-2.2-0.1-3.5c-0.1-0.3-0.1-0.6-0.2-0.9c-0.1-0.4-0.2-0.9-0.2-1.3
			C78,68.4,78,66.9,78,65.6v-0.5c0-0.5,0-0.9,0-1.3c0-0.2,0-0.4,0-0.6l0,0l0,0c-0.1,0.2-0.2,0.3-0.3,0.5c-0.2,0.3-0.5,0.7-0.8,1
			l-0.3,0.4c-0.8,1-1.8,2.2-3.4,3.6c-0.3,0.3-0.7,0.6-1,0.9c-0.2,0.2-0.4,0.4-0.7,0.6c-1,0.8-1.8,1.7-2.3,2.6
			C69.1,73,69,73.2,69,73.4c-0.3,0.9-0.4,1.8-0.1,2.8c0,0.1,0.1,0.2,0.1,0.3c0.1,0.2,0.1,0.4,0.2,0.6c0,0.1,0.1,0.2,0.1,0.3
			c0.1,0.2,0.2,0.5,0.4,0.7c0.6,0.9,1.4,1.6,2.4,2l0,0l0,0c0.9,0.3,1.8,0.4,2.8,0.1c0.3-0.1,0.6-0.2,1-0.4c0.1-0.1,0.2-0.1,0.3-0.1
			c0.2-0.1,0.4-0.2,0.5-0.3c0.1-0.1,0.2-0.1,0.2-0.2c0.8-0.6,1.3-1.3,1.7-2.2C78.7,76.6,78.8,76.4,78.8,76.2z M72.5,79.6
			c-0.1,0-0.2,0-0.2-0.1c-0.1,0-0.1-0.1-0.2-0.1l0,0l0,0c0.1,0,0.2,0,0.3,0.1C72.4,79.5,72.5,79.5,72.5,79.6
			C72.6,79.6,72.6,79.6,72.5,79.6C72.6,79.6,72.5,79.6,72.5,79.6z"/>
	</g>
	<g id="图层_736">
		<path id="XMLID_1518_" class="st0" d="M26.3,76.2c0.3-1,0.1-2.2-0.1-3.5c-0.1-0.3-0.1-0.6-0.2-0.9c-0.1-0.4-0.2-0.9-0.2-1.3
			c-0.3-2.1-0.3-3.6-0.3-4.9v-0.5c0-0.5,0-0.9,0-1.3c0-0.2,0-0.4,0-0.6l0,0l0,0c-0.1,0.2-0.2,0.3-0.4,0.5c-0.2,0.3-0.5,0.7-0.8,1
			L24,65.1c-0.8,1-1.8,2.2-3.4,3.6c-0.3,0.3-0.7,0.6-1,0.9c-0.2,0.2-0.4,0.4-0.7,0.6c-1,0.8-1.8,1.7-2.3,2.6
			c-0.1,0.2-0.2,0.4-0.2,0.6c-0.3,0.9-0.4,1.8-0.1,2.8c0,0.1,0.1,0.2,0.1,0.3c0.1,0.2,0.1,0.4,0.2,0.6c0,0.1,0.1,0.2,0.1,0.3
			c0.1,0.2,0.2,0.5,0.4,0.7c0.6,0.9,1.4,1.6,2.4,2l0,0l0,0c0.9,0.3,1.8,0.4,2.8,0.1c0.3-0.1,0.6-0.2,1-0.4c0.1-0.1,0.2-0.1,0.3-0.1
			c0.2-0.1,0.4-0.2,0.5-0.3c0.1-0.1,0.2-0.1,0.2-0.2c0.8-0.6,1.3-1.3,1.7-2.2C26.1,76.6,26.2,76.4,26.3,76.2z M20,79.6
			c-0.1,0-0.2,0-0.2-0.1c-0.1,0-0.1-0.1-0.2-0.1l0,0l0,0c0.1,0,0.2,0,0.3,0.1C19.8,79.5,19.9,79.5,20,79.6L20,79.6L20,79.6z"/>
	</g>
	<g id="图层_735">
		
			<linearGradient id="XMLID_3_" gradientUnits="userSpaceOnUse" x1="49.5" y1="44.7815" x2="49.5" y2="106.147" gradientTransform="matrix(1 0 0 -1 0 106)">
			<stop  offset="0" style="stop-color:#3C95E7"/>
			<stop  offset="1" style="stop-color:#CBE2FF"/>
		</linearGradient>
		<path id="XMLID_2_" class="st1" d="M99,40.7C99,30.4,90.8,22,80.6,22c-1,0-2,0.1-3,0.3c-0.8-8.6-7.9-15.2-16.5-15.2
			c-2.7,0-5.2,0.7-7.5,1.8C50.4,3.5,44.4,0,37.8,0C27.6,0,19.4,8.4,19.4,18.7c0,0.3,0,0.5,0,0.8C8.6,19.9,0,29,0,40.1
			c0,11.4,9.1,20.6,20.3,20.6c0.1,0,0.1,0,0.2,0c16.9,1.7,55.2-0.7,57.1-0.8c1.1,0,2.2-0.2,3.2-0.3C90.8,59.5,99,51,99,40.7z"/>
	</g>
	<g id="图层_734">
		<polygon id="XMLID_1515_" class="st2" points="51.9,63.3 60.7,63.3 50.6,81.6 62.5,77.8 46.9,105 54.1,84 42.8,88.9 		"/>
	</g>
</g>
</svg>
