<?xml version="1.0" encoding="utf-8"?>
<!-- Generator: Adobe Illustrator 23.0.0, SVG Export Plug-In . SVG Version: 6.00 Build 0)  -->
<svg version="1.1" id="图标" xmlns="http://www.w3.org/2000/svg" xmlns:xlink="http://www.w3.org/1999/xlink" x="0px" y="0px"
	 viewBox="0 0 45 42" style="enable-background:new 0 0 45 42;" xml:space="preserve">
<style type="text/css">
	.st0{fill:#5980A8;}
</style>
<path id="charts" class="st0" d="M1.5,38.8h42c0.8,0,1.5,0.7,1.5,1.6l0,0c0,0.9-0.7,1.6-1.5,1.6h-42C0.7,42,0,41.3,0,40.4l0,0
	C0,39.5,0.7,38.8,1.5,38.8z M3.8,18.1h4.8c0.8,0,1.5,0.7,1.5,1.6v13.4c0,0.9-0.7,1.6-1.5,1.6H3.8c-0.8,0-1.5-0.7-1.5-1.6V19.8
	C2.3,18.9,3,18.1,3.8,18.1z M14.8,0h4.8c0.8,0,1.5,0.7,1.5,1.6v31.5c0,0.9-0.7,1.6-1.5,1.6h-4.8c-0.8,0-1.5-0.7-1.5-1.6V1.6
	C13.2,0.7,13.9,0,14.8,0z M25.7,12.1h4.8c0.8,0,1.5,0.7,1.5,1.6v19.4c0,0.9-0.7,1.6-1.5,1.6h-4.8c-0.8,0-1.5-0.7-1.5-1.6V13.7
	C24.2,12.8,24.9,12.1,25.7,12.1z M36.7,22.7h4.8c0.8,0,1.5,0.7,1.5,1.6v8.9c0,0.9-0.7,1.6-1.5,1.6h-4.8c-0.8,0-1.5-0.7-1.5-1.6v-8.9
	C35.1,23.4,35.8,22.7,36.7,22.7z"/>
</svg>
