<?xml version="1.0" encoding="utf-8"?>
<!-- Generator: Adobe Illustrator 23.0.0, SVG Export Plug-In . SVG Version: 6.00 Build 0)  -->
<svg version="1.1" id="组_2503_拷贝" xmlns="http://www.w3.org/2000/svg" xmlns:xlink="http://www.w3.org/1999/xlink" x="0px"
	 y="0px" viewBox="0 0 60 60" style="enable-background:new 0 0 60 60;" xml:space="preserve">
<style type="text/css">
	.st0{fill:url(#SVGID_1_);}
	.st1{fill:#FFFFFF;}
	.st2{fill:#29BE7F;enable-background:new    ;}
</style>
<g id="椭圆_1185">
	<linearGradient id="SVGID_1_" gradientUnits="userSpaceOnUse" x1="30" y1="59" x2="30" y2="1">
		<stop  offset="0" style="stop-color:#D7D7D7"/>
		<stop  offset="1" style="stop-color:#FFFFFF"/>
	</linearGradient>
	<circle class="st0" cx="30" cy="30" r="29"/>
	<path class="st1" d="M30,2c15.4,0,28,12.6,28,28S45.4,58,30,58S2,45.4,2,30S14.6,2,30,2 M30,0C13.4,0,0,13.4,0,30s13.4,30,30,30
		s30-13.4,30-30S46.6,0,30,0L30,0z"/>
</g>
<path class="st2" d="M43.4,18c-0.4-0.4-1-0.6-1.5-0.6c-0.1,0-0.1,0-0.2,0c0,0-0.4,0-0.9,0c-0.9,0-2.7-0.1-4.3-0.5
	c-2.2-0.5-4.7-2.9-5.4-3.4c-0.3-0.2-0.8-0.3-1.2-0.3c-0.4,0-0.8,0.1-1.2,0.3c-0.1,0.1-2.7,2.8-5.2,3.4c-1.7,0.4-3.5,0.5-4.4,0.5
	c-0.6,0-0.9,0-0.9,0c0,0-0.1,0-0.1,0c-0.6,0-1.1,0.2-1.5,0.6c-0.4,0.4-0.7,0.9-0.7,1.5v5.3c0,19.4,13.1,21.9,13.7,22
	c0.1,0,0.3,0,0.4,0c0.1,0,0.3,0,0.4,0c0.6-0.1,13.8-2.6,13.8-22v-5.3C44.1,18.9,43.8,18.4,43.4,18L43.4,18z M38.6,25.5l-9.1,8.8
	c-0.1,0.1-0.1,0.2-0.2,0.3c-0.3,0.3-0.6,0.4-0.9,0.4c-0.3,0-0.7-0.1-1-0.4c-0.1-0.1-0.2-0.2-0.2-0.3l-4.9-4.7
	c-0.5-0.5-0.5-1.3,0-1.8c0.5-0.5,1.4-0.5,1.9,0l4.2,4l8.4-8.1c0.5-0.5,1.4-0.5,1.9,0C39.1,24.1,39.1,25,38.6,25.5L38.6,25.5z"/>
</svg>
