<?xml version="1.0" encoding="utf-8"?>
<!-- Generator: Adobe Illustrator 23.0.0, SVG Export Plug-In . SVG Version: 6.00 Build 0)  -->
<svg version="1.1" id="图层_1" xmlns="http://www.w3.org/2000/svg" xmlns:xlink="http://www.w3.org/1999/xlink" x="0px" y="0px"
	 viewBox="0 0 104 104" style="enable-background:new 0 0 104 104;" xml:space="preserve">
<style type="text/css">
	.st0{fill:url(#SVGID_1_);}
</style>
<linearGradient id="SVGID_1_" gradientUnits="userSpaceOnUse" x1="52" y1="104" x2="52" y2="-2.936314e-06">
	<stop  offset="0" style="stop-color:#3DC1FF"/>
	<stop  offset="1" style="stop-color:#E4F0FF"/>
</linearGradient>
<path class="st0" d="M52,41.1c3,0,5.5,2.5,5.5,5.5l0,0v13.7h41.1c3,0,5.5,2.5,5.5,5.5c0,0,0,0,0,0v32.8c0,3-2.5,5.5-5.5,5.5
	c0,0,0,0,0,0H5.5c-3,0-5.5-2.5-5.5-5.5l0,0V65.7c0-3,2.5-5.5,5.5-5.5h0h41.1V46.5C46.5,43.5,49,41.1,52,41.1z M16.4,76.6
	c-3,0-5.5,2.4-5.5,5.5c0,3,2.4,5.5,5.5,5.5c0,0,0,0,0,0c3,0,5.5-2.5,5.5-5.5C21.9,79.1,19.4,76.6,16.4,76.6z M32.8,76.6
	c-3,0-5.5,2.4-5.5,5.5c0,3,2.4,5.5,5.5,5.5c0,0,0,0,0,0c3,0,5.5-2.5,5.5-5.5C38.3,79.1,35.9,76.6,32.8,76.6z M52,15.9
	c12.4,0,22.5,10.2,22.5,22.7c0,2.9-2.3,5.2-5.2,5.2c0,0,0,0,0,0c-1.4,0-2.7-0.5-3.6-1.5c-1-1-1.5-2.3-1.5-3.7
	c-0.1-6.7-5.5-12.2-12.2-12.2c-6.7,0-12.2,5.4-12.2,12.2c0,2.8-2.3,5.1-5.2,5.1c-2.8,0-5.1-2.3-5.2-5.1C29.5,26.1,39.6,15.9,52,15.9
	L52,15.9z M52,0c21.2,0,38.3,17.3,38.3,38.6c0,2.9-2.3,5.2-5.2,5.2c-1.4,0-2.7-0.5-3.6-1.5c-1-1-1.5-2.3-1.5-3.7
	C80,23,67.5,10.4,52,10.4c-15.5,0-28,12.6-28,28.2c0,2.8-2.3,5.1-5.1,5.1c-2.8,0-5.1-2.3-5.2-5.1C13.7,17.3,30.8,0,52,0z"/>
</svg>
