<?xml version="1.0" encoding="utf-8"?>
<!-- Generator: Adobe Illustrator 23.0.0, SVG Export Plug-In . SVG Version: 6.00 Build 0)  -->
<svg version="1.1" id="图层_1" xmlns="http://www.w3.org/2000/svg" xmlns:xlink="http://www.w3.org/1999/xlink" x="0px" y="0px"
	 viewBox="0 0 104 104" style="enable-background:new 0 0 104 104;" xml:space="preserve">
<style type="text/css">
	.st0{fill:url(#SVGID_1_);}
	.st1{fill:url(#SVGID_2_);}
</style>
<g>
	<linearGradient id="SVGID_1_" gradientUnits="userSpaceOnUse" x1="52" y1="97.134" x2="52" y2="6.866">
		<stop  offset="0" style="stop-color:#3DC1FF"/>
		<stop  offset="1" style="stop-color:#E4F0FF"/>
	</linearGradient>
	<path class="st0" d="M98.9,34.7l-13,12.9c-2.2-16.9-16.2-29.4-33.2-29.5c-16.4-0.1-30,11.7-33.4,26.9L7.4,56.9l0-5.1
		C7.5,27,27.9,6.8,52.8,6.9c16.9,0.1,31,9.2,38.8,22.7l12.4,0.1L98.9,34.7L98.9,34.7z M97.2,46.5c0,1.7,0.5,4,0.5,5.6
		c-0.1,24.8-20.5,45-45.3,44.9c-16.9-0.1-31-9.2-38.8-22.7L0,74.3l7.9-7.9l10.8-10.7c2.2,16.9,16.2,30,33.7,30
		c16.9,0.1,30.5-12.3,33.4-28.1L97.2,46.5L97.2,46.5z"/>
	<g>
		<linearGradient id="SVGID_2_" gradientUnits="userSpaceOnUse" x1="51.5567" y1="74.6552" x2="51.5567" y2="30.9702">
			<stop  offset="0" style="stop-color:#3DC1FF"/>
			<stop  offset="1" style="stop-color:#E4F0FF"/>
		</linearGradient>
		<path class="st1" d="M43,73.7c-2-0.3-3.7-0.9-5.3-1.7l-0.8,2.7h-6.8c1.5-4.2,2.6-8.2,3.3-11.8c0.7-3.6,1.1-7.5,1.3-11.7H29v-6.3
			h12.2c0,4.1-0.1,7.8-0.4,11.1c-0.3,3.3-0.8,6.5-1.5,9.8c1.4,0.8,3,1.3,4.7,1.7c1.7,0.3,3.8,0.5,6.3,0.5h23.8v6.4H50.3
			C47.4,74.2,44.9,74,43,73.7z M37.5,31l3.3,10.5h-6.6L31,31H37.5z M46.6,31h6.3l-3.7,17l3.7,17h-6.3l-3.7-17L46.6,31z M56.8,31H63
			l-3.7,17l3.7,17h-6.3L53,48L56.8,31z M66.9,31h6.3l-3.7,17l3.7,17h-6.3l-3.7-17L66.9,31z"/>
	</g>
</g>
</svg>
