<?xml version="1.0" encoding="utf-8"?>
<!-- Generator: Adobe Illustrator 23.0.0, SVG Export Plug-In . SVG Version: 6.00 Build 0)  -->
<svg version="1.1" id="图层_1" xmlns="http://www.w3.org/2000/svg" xmlns:xlink="http://www.w3.org/1999/xlink" x="0px" y="0px"
	 viewBox="0 0 104 104" style="enable-background:new 0 0 104 104;" xml:space="preserve">
<style type="text/css">
	.st0{fill:url(#SVGID_1_);}
</style>
<linearGradient id="SVGID_1_" gradientUnits="userSpaceOnUse" x1="52" y1="104" x2="52" y2="-2.728484e-12">
	<stop  offset="0" style="stop-color:#3DC1FF"/>
	<stop  offset="1" style="stop-color:#E4F0FF"/>
</linearGradient>
<path class="st0" d="M96.8,34.9L61.1,53.6c-3.3,1.9-5.2,5.2-5.2,9v35.5c0,3.9,3.9,6.5,7.2,4.5L98.8,84c3.3-1.9,5.2-5.2,5.2-9V40
	C104,35.5,100.1,33.6,96.8,34.9L96.8,34.9z M42.9,53.6L7.2,34.9C3.9,33.6,0,35.5,0,39.4v36.2c0,3.9,1.9,7.1,5.2,9L41,103.3
	c3.2,1.9,7.2-0.7,7.2-4.5V62C48.1,58.8,46.1,54.9,42.9,53.6L42.9,53.6z M93.6,26.5c1.9-0.6,2.6-2.6,2.6-3.9s-0.6-2.6-2.6-3.9
	L57.2,1.3C55.6,0.5,53.8,0,52,0c-1.9,0-3.9,0.6-5.2,1.3L10.4,19.4c-1.9,0.6-2.6,1.9-2.6,3.9c0,1.3,0.6,3.2,2.6,3.9l36.4,18.1
	c1.3,0.6,3.3,0.6,5.2,0.6c1.8,0,3.6-0.5,5.2-1.3L93.6,26.5L93.6,26.5z"/>
</svg>
