<?xml version="1.0" encoding="utf-8"?>
<!-- Generator: Adobe Illustrator 23.0.0, SVG Export Plug-In . SVG Version: 6.00 Build 0)  -->
<svg version="1.1" id="图层_1" xmlns="http://www.w3.org/2000/svg" xmlns:xlink="http://www.w3.org/1999/xlink" x="0px" y="0px"
	 viewBox="0 0 104 104" style="enable-background:new 0 0 104 104;" xml:space="preserve">
<style type="text/css">
	.st0{fill:url(#SVGID_1_);}
</style>
<linearGradient id="SVGID_1_" gradientUnits="userSpaceOnUse" x1="52" y1="102.8024" x2="52" y2="-1.1976" gradientTransform="matrix(1 0 0 -1 0 102.8024)">
	<stop  offset="0" style="stop-color:#E4F0FF"/>
	<stop  offset="1" style="stop-color:#3DC1FF"/>
</linearGradient>
<path class="st0" d="M18.8,61.4c-0.6-1.9-0.6-3.8-0.6-5.6c0-10,4.4-19.4,11.9-25.7l-3.8-15C13.2,23.2,3.8,38.2,3.8,55.8
	c0,3.8,0.6,7.5,1.3,11.3c-3.1,3.1-5,7.5-5,12.5c0,10,8.1,18.2,18.2,18.2s18.2-8.1,18.2-18.2S28.2,61.4,18.8,61.4z M40.7,87.7
	l-8.1,11.9c5.6,3.1,12.5,4.4,19.4,4.4c10,0,19.4-3.1,26.9-8.1c2.5,0.6,4.4,1.3,6.9,1.3c10,0,18.2-8.1,18.2-18.2s-8.1-18.2-18.2-18.2
	s-18.2,8.1-18.2,18.2c0,1.9,0.6,4.4,1.3,6.3c-5,2.5-10.7,4.4-16.9,4.4C48.2,89.6,44.5,89,40.7,87.7z M100.2,59.5v-3.1
	c0-20.7-13.2-38.2-32-45.1C65.2,4.4,58.9,0,51.4,0c-10,0-18.2,8.1-18.2,18.2s8.1,18.2,18.2,18.2c6.9,0,13.2-4.4,16.3-10
	c10.7,5,17.5,15.7,18.2,28.2C85.8,54.5,99.6,58.9,100.2,59.5z"/>
</svg>
