<?xml version="1.0" encoding="utf-8"?>
<!-- Generator: Adobe Illustrator 23.0.0, SVG Export Plug-In . SVG Version: 6.00 Build 0)  -->
<svg version="1.1" id="图标" xmlns="http://www.w3.org/2000/svg" xmlns:xlink="http://www.w3.org/1999/xlink" x="0px" y="0px"
	 viewBox="0 0 1024 1024" style="enable-background:new 0 0 1024 1024;" xml:space="preserve">
<style type="text/css">
	.st0{fill-rule:evenodd;clip-rule:evenodd;}
</style>
<path id="ranging" class="st0" d="M940.7,339l-258-258.9c-25.2-25.4-39.4-25.4-61.6-2.7C438.6,257.3,259.3,437.3,79.8,620.1
	c-17.1,12.4-20.9,36.2-8.5,53.3c2.4,3.3,5.3,6.2,8.5,8.5c89.8,87.3,176.6,177.2,266.4,267.2c6.9,8.5,17.2,13.7,28.1,14.2
	c14.2-1.9,27.1-9,36.4-19.8l532.7-534.4C965.9,378.3,965.9,367.1,940.7,339z M848.1,403.5L402.2,850.9c-22.3,22.5-39.2,22.5-61.6,0
	L172.3,682c-16.9-16.9-25.2-33.7-8.3-53.3c14-19.8,25.2-28.1,44.8-5.6c25.2,28.1,53.3,53.3,78.5,81.4c11.2,11.2,16.9,14.2,30.8,0
	c31-30.8,31-30.8,0-61.9l-70-70.2c-11.2-11.5-14.2-17.1,0-31c33.5-33.7,30.8-33.7,64.4,0c12,10.5,23.2,21.8,33.7,33.7
	c19.6,25.4,33.7,25.4,53.3,0c14-16.9,19.6-25.4,0-39.4c-14-11.2-28.1-28.1-42.1-39.4c-33.7-33.7-33.7-33.7,2.7-67.5
	c11.2-8.5,14.2-11.2,25.4,0c25.2,28.1,53.1,53.3,78.5,81.4c16.7,16.9,27.9,25.4,47.5,2.9c16.9-19.8,28.1-28.1,2.9-50.6
	c-28.1-22.5-50.4-50.6-78.5-76c-14-14-11.2-19.6,0-30.8c30.8-28.1,28.1-31,58.9,0l50.4,50.6c8.3,11.2,16.9,8.3,25.2,0
	c36.4-31,36.4-31,0-64.8c-14-14-27.9-31-44.8-45c-22.5-19.8-2.9-28.1,8.3-36.7c11.2-8.5,16.9-33.7,39.4-11.2l84.1,84.6
	c22.3,28.1,30.8,0,44.8-8.5c16.9-11.2,22.5-22.5,2.7-39.4c-27.2-23.2-52.5-48.6-75.6-76c-8.3-8.3-25.2-14-16.9-25.2
	c6.8-16,22-26.8,39.4-28.1c11.8,0,23.1,5,30.8,14L851,339C873.3,364.2,873.3,381,848.1,403.5L848.1,403.5z"/>
</svg>
